<?xml version="1.0" encoding="utf-8"?>
<!-- Generator: Adobe Illustrator 23.0.0, SVG Export Plug-In . SVG Version: 6.00 Build 0)  -->
<svg version="1.1" id="Camada_1" xmlns="http://www.w3.org/2000/svg" xmlns:xlink="http://www.w3.org/1999/xlink" x="0px" y="0px"
	 viewBox="0 0 1038 447" style="enable-background:new 0 0 1038 447;" xml:space="preserve">
<style type="text/css">
	.st0{fill:none;}
	.st1{clip-path:url(#SVGID_2_);fill:#6213CB;}
	.st2{fill:#6213CC;}
	.st3{fill:#DE5151;}
	.st4{fill:#EFEFEF;}
	.st5{fill:none;stroke:#F7EC41;stroke-miterlimit:10;}
	.st6{fill:none;stroke:#DE4F51;stroke-miterlimit:10;}
	.st7{fill:none;stroke:#FFFFFF;stroke-linecap:round;stroke-linejoin:round;stroke-miterlimit:10;}
	.st8{fill:none;stroke:#6213CC;stroke-miterlimit:10;}
	.st9{fill:none;stroke:#6312CC;stroke-width:1.5;stroke-miterlimit:10;}
	.st10{fill:url(#SVGID_3_);}
	.st11{fill:#FFFFFF;}
	.st12{fill:none;stroke:#DD4F51;stroke-miterlimit:10;}
	.st13{fill:none;stroke:#6213CB;stroke-width:0.75;stroke-miterlimit:10;}
	.st14{fill:#DD4F51;}
</style>
<pattern  x="-119" y="-161" width="10" height="10" patternUnits="userSpaceOnUse" id="Unnamed_Pattern_22" viewBox="0.5 -10.5 10 10" style="overflow:visible;">
	<g>
		<rect x="0.5" y="-10.5" class="st0" width="10" height="10"/>
		<g>
			<defs>
				<rect id="SVGID_1_" x="0.5" y="-10.5" width="10" height="10"/>
			</defs>
			<clipPath id="SVGID_2_">
				<use xlink:href="#SVGID_1_"  style="overflow:visible;"/>
			</clipPath>
			<path class="st1" d="M8.5-10.5C8.5-10.78,8.28-11,8-11c-0.28,0-0.5,0.22-0.5,0.5S7.72-10,8-10C8.28-10,8.5-10.22,8.5-10.5"/>
			<path class="st1" d="M3.5-10.5C3.5-10.78,3.28-11,3-11s-0.5,0.22-0.5,0.5S2.72-10,3-10S3.5-10.22,3.5-10.5"/>
			<path class="st1" d="M11-5.5C11-5.78,10.78-6,10.5-6C10.22-6,10-5.78,10-5.5C10-5.22,10.22-5,10.5-5C10.78-5,11-5.22,11-5.5"/>
			<path class="st1" d="M6-5.5C6-5.78,5.78-6,5.5-6C5.22-6,5-5.78,5-5.5C5-5.22,5.22-5,5.5-5C5.78-5,6-5.22,6-5.5"/>
			<path class="st1" d="M1-5.5C1-5.78,0.78-6,0.5-6S0-5.78,0-5.5C0-5.22,0.22-5,0.5-5S1-5.22,1-5.5"/>
			<path class="st1" d="M8.5-0.5C8.5-0.78,8.28-1,8-1C7.72-1,7.5-0.78,7.5-0.5C7.5-0.22,7.72,0,8,0C8.28,0,8.5-0.22,8.5-0.5"/>
			<path class="st1" d="M3.5-0.5C3.5-0.78,3.28-1,3-1S2.5-0.78,2.5-0.5C2.5-0.22,2.72,0,3,0S3.5-0.22,3.5-0.5"/>
		</g>
	</g>
</pattern>
<g>
	<g>
		<g>
			<g>
				<path class="st2" d="M912.88,92.49H727.31V44.05c0-5.52,4.48-10,10-10h175.58c5.52,0,10,4.48,10,10v38.44
					C922.88,88.01,918.41,92.49,912.88,92.49z"/>
			</g>
			<circle class="st2" cx="709.63" cy="80.34" r="12.15"/>
			<circle class="st3" cx="718.74" cy="89.45" r="3.04"/>
		</g>
		<g>
			<circle class="st3" cx="939.17" cy="63.27" r="1.82"/>
			<circle class="st3" cx="947.26" cy="63.27" r="1.82"/>
			<circle class="st3" cx="955.36" cy="63.27" r="1.82"/>
		</g>
		<g>
			<g>
				<path class="st2" d="M912.88,265.2H727.31v-48.44c0-5.52,4.48-10,10-10h175.58c5.52,0,10,4.48,10,10v38.44
					C922.88,260.73,918.41,265.2,912.88,265.2z"/>
			</g>
			<circle class="st2" cx="709.63" cy="253.06" r="12.15"/>
			<circle class="st3" cx="718.74" cy="262.17" r="3.04"/>
		</g>
		<g>
			<circle class="st3" cx="939.17" cy="235.98" r="1.82"/>
			<circle class="st3" cx="947.26" cy="235.98" r="1.82"/>
			<circle class="st3" cx="955.36" cy="235.98" r="1.82"/>
		</g>
		<g>
			<path class="st4" d="M771.6,178.85h185.58V130.4c0-5.52-4.48-10-10-10H771.6c-5.52,0-10,4.48-10,10v38.44
				C761.6,174.37,766.08,178.85,771.6,178.85z"/>
			<circle class="st3" cx="974.85" cy="166.7" r="12.15"/>
			<g>
				<circle class="st2" cx="965.74" cy="175.81" r="3.04"/>
			</g>
		</g>
		<g>
			<circle class="st3" cx="745.31" cy="149.63" r="1.82"/>
			<circle class="st3" cx="737.22" cy="149.63" r="1.82"/>
			<circle class="st3" cx="729.13" cy="149.63" r="1.82"/>
		</g>
		<g>
			<line class="st5" x1="776.2" y1="232.22" x2="776.2" y2="239.74"/>
			<line class="st5" x1="781.35" y1="227.64" x2="781.35" y2="244.33"/>
			<line class="st5" x1="786.5" y1="222.23" x2="786.5" y2="249.73"/>
			<line class="st5" x1="791.64" y1="227.64" x2="791.64" y2="244.33"/>
			<line class="st5" x1="796.79" y1="222.23" x2="796.79" y2="249.73"/>
			<line class="st5" x1="801.94" y1="230.22" x2="801.94" y2="241.74"/>
			<line class="st5" x1="807.08" y1="227.64" x2="807.08" y2="244.33"/>
			<line class="st5" x1="812.23" y1="222.23" x2="812.23" y2="249.73"/>
			<line class="st5" x1="817.38" y1="232.69" x2="817.38" y2="239.27"/>
			<line class="st5" x1="822.52" y1="227.64" x2="822.52" y2="244.33"/>
			<line class="st5" x1="827.67" y1="235.21" x2="827.67" y2="236.76"/>
			<line class="st5" x1="832.82" y1="222.23" x2="832.82" y2="249.73"/>
			<line class="st5" x1="837.96" y1="227.64" x2="837.96" y2="244.33"/>
			<line class="st5" x1="843.11" y1="222.23" x2="843.11" y2="249.73"/>
			<line class="st5" x1="848.25" y1="222.23" x2="848.25" y2="249.73"/>
			<line class="st5" x1="853.4" y1="227.64" x2="853.4" y2="244.33"/>
			<line class="st5" x1="858.55" y1="232.69" x2="858.55" y2="239.27"/>
			<line class="st5" x1="863.69" y1="222.23" x2="863.69" y2="249.73"/>
			<line class="st5" x1="868.84" y1="227.64" x2="868.84" y2="244.33"/>
			<line class="st5" x1="873.99" y1="232.69" x2="873.99" y2="239.27"/>
		</g>
	</g>
	<g>
		<line class="st6" x1="55.27" y1="415.54" x2="55.27" y2="293.88"/>
		<line class="st6" x1="55.27" y1="293.88" x2="65.19" y2="293.88"/>
		<g>
			<line class="st7" x1="448.69" y1="307.91" x2="566.09" y2="307.88"/>
			<line class="st8" x1="426.86" y1="307.91" x2="441.68" y2="307.89"/>
		</g>
		<g>
			<line class="st7" x1="640.82" y1="335.98" x2="747.12" y2="335.95"/>
			<line class="st8" x1="618.99" y1="335.98" x2="633.81" y2="335.96"/>
		</g>
		<g>
			<line class="st6" x1="557.66" y1="321.94" x2="577.71" y2="321.92"/>
			<line class="st8" x1="448.69" y1="321.94" x2="550.64" y2="321.93"/>
		</g>
		<g>
			<line class="st6" x1="506.68" y1="335.97" x2="612.77" y2="335.94"/>
			<line class="st6" x1="490.77" y1="335.97" x2="499.67" y2="335.95"/>
		</g>
		<g>
			<line class="st8" x1="514.64" y1="349.99" x2="490.77" y2="349.96"/>
			<line class="st8" x1="558.6" y1="349.99" x2="549.7" y2="349.97"/>
		</g>
		<line class="st6" x1="94.03" y1="415.54" x2="94.03" y2="328.94"/>
		<line class="st8" x1="565.3" y1="349.96" x2="671.75" y2="349.96"/>
	</g>
	<g>
		<line class="st9" x1="350.29" y1="176.2" x2="350.29" y2="199.87"/>
		<line class="st9" x1="222.97" y1="161.77" x2="222.97" y2="214.3"/>
		<line class="st9" x1="239.17" y1="144.75" x2="239.17" y2="231.32"/>
		<line class="st9" x1="255.37" y1="161.77" x2="255.37" y2="214.3"/>
		<line class="st9" x1="271.57" y1="144.75" x2="271.57" y2="231.32"/>
		<line class="st9" x1="287.78" y1="169.91" x2="287.78" y2="206.16"/>
		<line class="st9" x1="303.98" y1="161.77" x2="303.98" y2="214.3"/>
		<line class="st9" x1="320.18" y1="144.75" x2="320.18" y2="231.32"/>
		<line class="st9" x1="336.38" y1="177.68" x2="336.38" y2="198.39"/>
		<line class="st9" x1="209.06" y1="161.77" x2="209.06" y2="214.3"/>
		<line class="st9" x1="368.79" y1="185.6" x2="368.79" y2="190.47"/>
		<line class="st9" x1="195.06" y1="185.6" x2="195.06" y2="190.47"/>
		<line class="st9" x1="384.99" y1="144.75" x2="384.99" y2="231.32"/>
		<line class="st9" x1="401.19" y1="161.77" x2="401.19" y2="214.3"/>
		<line class="st9" x1="417.4" y1="144.75" x2="417.4" y2="231.32"/>
		<line class="st9" x1="433.6" y1="144.75" x2="433.6" y2="231.32"/>
		<line class="st9" x1="449.8" y1="161.77" x2="449.8" y2="214.3"/>
		<line class="st9" x1="466" y1="177.68" x2="466" y2="198.39"/>
		<line class="st9" x1="482.21" y1="144.75" x2="482.21" y2="231.32"/>
		<line class="st9" x1="498.41" y1="161.77" x2="498.41" y2="214.3"/>
		<line class="st9" x1="514.61" y1="177.68" x2="514.61" y2="198.39"/>
		<pattern  id="SVGID_3_" xlink:href="#Unnamed_Pattern_22" patternTransform="matrix(1 0 0 -1 184 1977.0002)">
		</pattern>
		<path class="st10" d="M827.88,220.43c-20.69,61.02-78.43,104.93-146.45,104.93c-68,0-125.76-43.92-146.45-104.93
			c20.68-61.01,78.45-104.93,146.45-104.93C749.45,115.5,807.19,159.41,827.88,220.43"/>
		<path class="st11" d="M827.88,188.61c-20.69,61.01-78.43,104.93-146.45,104.93c-68,0-125.76-43.92-146.45-104.93
			c20.68-61.01,78.45-104.93,146.45-104.93C749.45,83.68,807.19,127.59,827.88,188.61"/>
		<path class="st12" d="M512.58,188.61l2.31-6.81c24.2-71.38,91.13-119.33,166.54-119.33c75.42,0,142.34,47.96,166.54,119.33
			l2.31,6.81"/>
		<path class="st11" d="M827.88,188.61c-20.69,61.01-78.43,104.93-146.45,104.93c-68,0-125.76-43.92-146.45-104.93
			c20.68-61.01,78.45-104.93,146.45-104.93C749.45,83.68,807.19,127.59,827.88,188.61"/>
		
			<ellipse transform="matrix(0.4472 -0.8944 0.8944 0.4472 207.9904 713.7488)" class="st13" cx="681.43" cy="188.61" rx="62.4" ry="62.4"/>
		<path class="st14" d="M734.98,188.61c0,29.58-23.98,53.55-53.55,53.55c-29.58,0-53.55-23.98-53.55-53.55
			c0-29.58,23.98-53.55,53.55-53.55C711.01,135.05,734.98,159.03,734.98,188.61"/>
	</g>
</g>
</svg>
