<?xml version="1.0" encoding="utf-8"?>
<!-- Generator: Adobe Illustrator 23.0.0, SVG Export Plug-In . SVG Version: 6.00 Build 0)  -->
<svg version="1.1" id="Camada_1" xmlns="http://www.w3.org/2000/svg" xmlns:xlink="http://www.w3.org/1999/xlink" x="0px" y="0px"
	 viewBox="0 0 622 768" style="enable-background:new 0 0 622 768;" xml:space="preserve">
<style type="text/css">
	.st0{fill:none;}
	.st1{fill:#DE4F51;}
	.st2{enable-background:new    ;}
	.st3{fill:url(#SVGID_1_);}
	.st4{fill:url(#SVGID_2_);}
	.st5{fill:url(#SVGID_3_);}
	.st6{fill:url(#SVGID_4_);}
	.st7{fill:#DE5151;}
	.st8{fill:#6213CC;}
	.st9{fill:#EFEFEF;}
	.st10{fill:none;stroke:#DFDFDF;stroke-width:2;stroke-miterlimit:10;}
	.st11{fill:none;stroke:#6213CC;stroke-miterlimit:10;}
	.st12{fill:none;stroke:#DE4F51;stroke-miterlimit:10;}
	.st13{fill:none;stroke:#DE5151;stroke-width:1.5;stroke-miterlimit:10;}
	.st14{fill:url(#SVGID_5_);}
	.st15{fill:#FFFFFF;}
	.st16{fill:none;stroke:#6213CC;stroke-width:0.75;stroke-miterlimit:10;}
</style>
<pattern  x="-387" width="16" height="16" patternUnits="userSpaceOnUse" id="New_Pattern_4" viewBox="0.75 -16.75 16 16" style="overflow:visible;">
	<g>
		<rect x="0.75" y="-16.75" class="st0" width="16" height="16"/>
		<circle class="st1" cx="12.75" cy="-0.75" r="0.75"/>
		<circle class="st1" cx="4.75" cy="-0.75" r="0.75"/>
		<circle class="st1" cx="16.75" cy="-8.75" r="0.75"/>
		<circle class="st1" cx="8.75" cy="-8.75" r="0.75"/>
		<circle class="st1" cx="0.75" cy="-8.75" r="0.75"/>
		<circle class="st1" cx="12.75" cy="-16.75" r="0.75"/>
		<circle class="st1" cx="4.75" cy="-16.75" r="0.75"/>
	</g>
</pattern>
<pattern  x="-387" width="10" height="10" patternUnits="userSpaceOnUse" id="New_Pattern_5" viewBox="0.5 -10.5 10 10" style="overflow:visible;">
	<g>
		<rect x="0.5" y="-10.5" class="st0" width="10" height="10"/>
		<circle class="st1" cx="8" cy="-0.5" r="0.5"/>
		<circle class="st1" cx="3" cy="-0.5" r="0.5"/>
		<circle class="st1" cx="10.5" cy="-5.5" r="0.5"/>
		<circle class="st1" cx="5.5" cy="-5.5" r="0.5"/>
		<circle class="st1" cx="0.5" cy="-5.5" r="0.5"/>
		<circle class="st1" cx="8" cy="-10.5" r="0.5"/>
		<circle class="st1" cx="3" cy="-10.5" r="0.5"/>
	</g>
</pattern>
<g>
	<g>
		<g class="st2">
			<g>
				<pattern  id="SVGID_1_" xlink:href="#New_Pattern_4" patternTransform="matrix(1 0 0 1 235 -12)">
				</pattern>
				<polygon class="st3" points="129.49,627.85 243.44,628.11 320.06,495.23 505.51,496.24 569.44,385.37 383.99,384.36 
					460.21,252.17 346.27,251.91 				"/>
			</g>
			<g>
				<pattern  id="SVGID_2_" xlink:href="#New_Pattern_4" patternTransform="matrix(1 0 0 1 235 -12)">
				</pattern>
				<polygon class="st4" points="460.21,252.17 351.26,64.91 237.31,64.65 346.27,251.91 				"/>
			</g>
			<g>
				<pattern  id="SVGID_3_" xlink:href="#New_Pattern_4" patternTransform="matrix(1 0 0 1 235 -12)">
				</pattern>
				<polygon class="st5" points="346.27,251.91 237.31,64.65 20.53,440.59 129.49,627.85 				"/>
			</g>
			<g>
				<pattern  id="SVGID_4_" xlink:href="#New_Pattern_4" patternTransform="matrix(1 0 0 1 235 -12)">
				</pattern>
				<polygon class="st6" points="384.03,384.37 569.45,385.41 460.49,198.15 428.36,197.46 460.21,252.17 				"/>
			</g>
		</g>
	</g>
	<path class="st7" d="M390.59,569.2H245.36c-80.21,0-145.23-65.02-145.23-145.23v0c0-80.21,65.02-145.23,145.23-145.23h145.23V569.2
		z"/>
	<g>
		<g>
			<path class="st8" d="M497.45,404.91H240.39v-69.8c0-5.52,4.48-10,10-10h247.06c5.52,0,10,4.48,10,10v59.8
				C507.45,400.43,502.97,404.91,497.45,404.91z"/>
		</g>
		<circle class="st8" cx="216.25" cy="388.32" r="16.59"/>
		<circle class="st7" cx="228.69" cy="400.76" r="4.15"/>
	</g>
	<g>
		<circle class="st7" cx="529.69" cy="365.01" r="2.49"/>
		<circle class="st7" cx="540.74" cy="365.01" r="2.49"/>
		<circle class="st7" cx="551.79" cy="365.01" r="2.49"/>
	</g>
	<g>
		<path class="st9" d="M297.21,522.83h257.06v-69.8c0-5.52-4.48-10-10-10H297.21c-5.52,0-10,4.48-10,10v59.8
			C287.21,518.35,291.69,522.83,297.21,522.83z"/>
		<circle class="st7" cx="578.41" cy="506.24" r="16.59"/>
		<g>
			<circle class="st8" cx="565.97" cy="518.68" r="4.15"/>
		</g>
	</g>
	<g>
		<circle class="st7" cx="264.97" cy="482.93" r="2.49"/>
		<circle class="st7" cx="253.92" cy="482.93" r="2.49"/>
		<circle class="st7" cx="242.87" cy="482.93" r="2.49"/>
	</g>
	<g>
		<g>
			<line class="st10" x1="44.12" y1="442.32" x2="176.16" y2="442.29"/>
			<line class="st11" x1="19.56" y1="442.32" x2="36.23" y2="442.3"/>
		</g>
		<g>
			<line class="st10" x1="260.21" y1="473.9" x2="334.02" y2="473.87"/>
			<line class="st11" x1="235.65" y1="473.9" x2="252.32" y2="473.88"/>
		</g>
		<g>
			<line class="st12" x1="166.67" y1="458.11" x2="189.22" y2="458.08"/>
			<line class="st11" x1="44.12" y1="458.11" x2="158.78" y2="458.09"/>
		</g>
		<g>
			<line class="st12" x1="109.34" y1="473.88" x2="228.65" y2="473.85"/>
			<line class="st12" x1="91.44" y1="473.88" x2="101.45" y2="473.86"/>
		</g>
		<g>
			<line class="st11" x1="118.29" y1="489.66" x2="91.44" y2="489.62"/>
			<line class="st11" x1="167.73" y1="489.66" x2="157.72" y2="489.63"/>
		</g>
		<line class="st11" x1="175.27" y1="489.62" x2="294.99" y2="489.62"/>
	</g>
	<g>
		<line class="st13" x1="367.56" y1="478.84" x2="367.56" y2="487.02"/>
		<line class="st13" x1="373.16" y1="473.85" x2="373.16" y2="492.01"/>
		<line class="st13" x1="378.76" y1="467.97" x2="378.76" y2="497.89"/>
		<line class="st13" x1="384.36" y1="473.85" x2="384.36" y2="492.01"/>
		<line class="st13" x1="389.96" y1="467.97" x2="389.96" y2="497.89"/>
		<line class="st13" x1="395.55" y1="476.67" x2="395.55" y2="489.19"/>
		<line class="st13" x1="401.15" y1="473.85" x2="401.15" y2="492.01"/>
		<line class="st13" x1="406.75" y1="467.97" x2="406.75" y2="497.89"/>
		<line class="st13" x1="412.35" y1="479.35" x2="412.35" y2="486.51"/>
		<line class="st13" x1="417.95" y1="473.85" x2="417.95" y2="492.01"/>
		<line class="st13" x1="423.54" y1="482.09" x2="423.54" y2="483.77"/>
		<line class="st13" x1="429.14" y1="467.97" x2="429.14" y2="497.89"/>
		<line class="st13" x1="434.74" y1="473.85" x2="434.74" y2="492.01"/>
		<line class="st13" x1="440.34" y1="467.97" x2="440.34" y2="497.89"/>
		<line class="st13" x1="445.94" y1="467.97" x2="445.94" y2="497.89"/>
		<line class="st13" x1="451.53" y1="473.85" x2="451.53" y2="492.01"/>
		<line class="st13" x1="457.13" y1="479.35" x2="457.13" y2="486.51"/>
		<line class="st13" x1="462.73" y1="467.97" x2="462.73" y2="497.89"/>
		<line class="st13" x1="468.33" y1="473.85" x2="468.33" y2="492.01"/>
		<line class="st13" x1="473.93" y1="479.35" x2="473.93" y2="486.51"/>
	</g>
	<g>
		<g>
			<pattern  id="SVGID_5_" xlink:href="#New_Pattern_5" patternTransform="matrix(1 0 0 1 183 -6)">
			</pattern>
			<ellipse class="st14" cx="403.88" cy="692.78" rx="54.44" ry="39.01"/>
			<ellipse class="st15" cx="403.88" cy="680.95" rx="54.44" ry="39.01"/>
			<path class="st12" d="M341.12,680.95l0.86-2.53c8.99-26.53,33.87-44.36,61.91-44.36s52.91,17.83,61.91,44.36l0.86,2.53"/>
			<ellipse class="st15" cx="403.88" cy="680.95" rx="54.44" ry="39.01"/>
			<circle class="st16" cx="403.88" cy="680.95" r="23.2"/>
			<circle class="st1" cx="403.88" cy="680.95" r="19.91"/>
		</g>
		<circle class="st12" cx="383.98" cy="680.95" r="7.72"/>
	</g>
</g>
</svg>
