<?xml version="1.0" encoding="utf-8"?>
<!-- Generator: Adobe Illustrator 23.0.0, SVG Export Plug-In . SVG Version: 6.00 Build 0)  -->
<svg version="1.1" id="Camada_1" xmlns="http://www.w3.org/2000/svg" xmlns:xlink="http://www.w3.org/1999/xlink" x="0px" y="0px"
	 viewBox="0 0 250 190" style="enable-background:new 0 0 250 190;" xml:space="preserve">
<style type="text/css">
	.st0{fill:#FFFFFF;}
	.st1{fill:#6312CD;}
</style>
<g>
	<g>
		<g>
			<path class="st0" d="M36.06,99.99c0,0.65,0.34,1.12,1.02,1.4c0.68,0.28,1.91,0.52,3.7,0.71c2.06,0.22,3.74,0.83,5.04,1.85
				c1.3,1.02,1.95,2.43,1.95,4.25v0.24c0,2.01-0.73,3.61-2.19,4.8c-1.46,1.19-3.52,1.79-6.18,1.79c-1.57,0-2.91-0.2-4.02-0.61
				c-1.11-0.41-2.03-0.91-2.76-1.52c-0.73-0.61-1.29-1.29-1.69-2.03c-0.39-0.75-0.66-1.47-0.79-2.18l4.72-1.54
				c0.22,0.87,0.67,1.63,1.36,2.28c0.69,0.65,1.75,0.98,3.19,0.98c1.27,0,2.15-0.2,2.62-0.59c0.47-0.39,0.71-0.82,0.71-1.28
				c0-0.27-0.06-0.52-0.18-0.75c-0.12-0.23-0.35-0.45-0.67-0.65c-0.33-0.2-0.77-0.37-1.32-0.51c-0.56-0.14-1.25-0.24-2.09-0.33
				c-2.28-0.19-4.09-0.78-5.43-1.77c-1.34-0.99-2.01-2.45-2.01-4.37v-0.24c0-1,0.22-1.88,0.65-2.64c0.43-0.76,1-1.4,1.71-1.93
				c0.7-0.53,1.52-0.93,2.44-1.2c0.92-0.27,1.87-0.41,2.85-0.41c1.27,0,2.38,0.16,3.31,0.47c0.93,0.31,1.73,0.72,2.38,1.22
				c0.65,0.5,1.18,1.06,1.59,1.67c0.41,0.61,0.72,1.2,0.94,1.77l-4.63,1.87c-0.24-0.73-0.66-1.31-1.26-1.73
				c-0.6-0.42-1.37-0.63-2.32-0.63c-0.87,0-1.52,0.16-1.95,0.47C36.27,99.15,36.06,99.53,36.06,99.99z"/>
		</g>
		<g>
			<path class="st0" d="M58.82,106.05c0.03,0.6,0.17,1.15,0.43,1.65c0.26,0.5,0.61,0.94,1.06,1.3c0.45,0.37,0.96,0.65,1.54,0.85
				c0.58,0.2,1.2,0.31,1.85,0.31c1.27,0,2.25-0.22,2.93-0.67c0.68-0.45,1.17-0.98,1.46-1.61l4.39,2.44
				c-0.24,0.51-0.58,1.05-1.02,1.61s-1,1.06-1.69,1.52c-0.69,0.46-1.53,0.84-2.52,1.14c-0.99,0.3-2.15,0.45-3.48,0.45
				c-1.52,0-2.9-0.24-4.15-0.73c-1.25-0.49-2.32-1.19-3.23-2.11c-0.91-0.92-1.61-2.05-2.11-3.37c-0.5-1.33-0.75-2.83-0.75-4.51
				v-0.24c0-1.54,0.26-2.95,0.79-4.23c0.53-1.27,1.25-2.36,2.17-3.25c0.92-0.89,2-1.59,3.23-2.09c1.23-0.5,2.55-0.75,3.96-0.75
				c1.73,0,3.22,0.31,4.47,0.91c1.25,0.61,2.28,1.38,3.09,2.32c0.81,0.94,1.41,1.97,1.79,3.09c0.38,1.12,0.57,2.22,0.57,3.27v2.72
				H58.82z M63.66,98.37c-1.3,0-2.36,0.33-3.17,1s-1.34,1.43-1.59,2.3h9.51c-0.16-0.95-0.67-1.73-1.52-2.36
				C66.04,98.68,64.96,98.37,63.66,98.37z"/>
		</g>
		<g>
			<path class="st0" d="M84.11,114.46h-5.12V94.3h5.12v3.01h0.73c0.46-1.14,1.21-2.02,2.24-2.64c1.03-0.62,2.24-0.94,3.62-0.94
				c0.98,0,1.89,0.16,2.74,0.47c0.85,0.31,1.61,0.79,2.26,1.44c0.65,0.65,1.16,1.48,1.52,2.48c0.37,1,0.55,2.2,0.55,3.58v12.76
				h-5.12V103c0-1.44-0.35-2.57-1.04-3.39c-0.69-0.83-1.69-1.24-2.99-1.24c-1.52,0-2.65,0.51-3.39,1.52
				c-0.75,1.02-1.12,2.38-1.12,4.09V114.46z"/>
		</g>
		<g>
			<path class="st0" d="M116.71,111.54c-0.54,1.27-1.3,2.18-2.28,2.7c-0.98,0.53-2.11,0.79-3.41,0.79c-1.22,0-2.37-0.23-3.44-0.69
				c-1.07-0.46-2.01-1.14-2.83-2.03c-0.81-0.89-1.46-1.98-1.93-3.25c-0.47-1.27-0.71-2.72-0.71-4.35v-0.65
				c0-1.6,0.23-3.03,0.69-4.31c0.46-1.27,1.08-2.36,1.87-3.25c0.79-0.89,1.7-1.58,2.74-2.05c1.04-0.47,2.16-0.71,3.35-0.71
				c1.44,0,2.59,0.24,3.48,0.73c0.88,0.49,1.58,1.25,2.09,2.28h0.73V94.3h5.12v14.07c0,0.81,0.37,1.22,1.1,1.22h0.77v4.88h-3.5
				c-0.92,0-1.67-0.27-2.26-0.81c-0.58-0.54-0.87-1.25-0.87-2.11H116.71z M112.16,110.16c1.49,0,2.68-0.49,3.58-1.48
				c0.89-0.99,1.34-2.34,1.34-4.05v-0.49c0-1.71-0.45-3.06-1.34-4.05c-0.89-0.99-2.09-1.48-3.58-1.48c-1.49,0-2.68,0.49-3.58,1.48
				c-0.89,0.99-1.34,2.34-1.34,4.05v0.49c0,1.71,0.45,3.06,1.34,4.05C109.48,109.66,110.67,110.16,112.16,110.16z"/>
		</g>
		<g>
			<path class="st0" d="M128.71,109.59h6.83V99.18h-6.34V94.3h11.46v15.29h5.85v4.88h-17.81V109.59z M141.92,88.32
				c0,0.54-0.1,1.05-0.31,1.52c-0.2,0.47-0.48,0.88-0.83,1.22c-0.35,0.34-0.77,0.61-1.24,0.81c-0.47,0.2-0.97,0.3-1.48,0.3
				c-0.54,0-1.04-0.1-1.5-0.3c-0.46-0.2-0.87-0.47-1.22-0.81c-0.35-0.34-0.63-0.74-0.83-1.22c-0.2-0.47-0.31-0.98-0.31-1.52
				c0-0.54,0.1-1.05,0.31-1.52c0.2-0.47,0.48-0.88,0.83-1.22c0.35-0.34,0.76-0.61,1.22-0.81c0.46-0.2,0.96-0.31,1.5-0.31
				c0.51,0,1.01,0.1,1.48,0.31c0.47,0.2,0.89,0.47,1.24,0.81c0.35,0.34,0.63,0.75,0.83,1.22C141.82,87.27,141.92,87.78,141.92,88.32
				z"/>
		</g>
	</g>
	<g>
		<g>
			<path class="st0" d="M30,144.86h6.83v-10.41h-6.34v-4.88h11.46v15.29h5.85v4.88H30V144.86z M43.21,123.59
				c0,0.54-0.1,1.05-0.31,1.52c-0.2,0.47-0.48,0.88-0.83,1.22c-0.35,0.34-0.77,0.61-1.24,0.81c-0.47,0.2-0.97,0.3-1.48,0.3
				c-0.54,0-1.04-0.1-1.5-0.3c-0.46-0.2-0.87-0.47-1.22-0.81c-0.35-0.34-0.63-0.74-0.83-1.22c-0.2-0.47-0.31-0.98-0.31-1.52
				c0-0.54,0.1-1.05,0.31-1.52c0.2-0.47,0.48-0.88,0.83-1.22c0.35-0.34,0.76-0.61,1.22-0.81c0.46-0.2,0.96-0.31,1.5-0.31
				c0.51,0,1.01,0.1,1.48,0.31c0.47,0.2,0.89,0.47,1.24,0.81c0.35,0.34,0.63,0.75,0.83,1.22C43.11,122.54,43.21,123.05,43.21,123.59
				z"/>
		</g>
		<g>
			<path class="st0" d="M59.43,149.73h-5.12v-20.16h5.12v3.01h0.73c0.46-1.14,1.21-2.02,2.24-2.64c1.03-0.62,2.24-0.94,3.62-0.94
				c0.98,0,1.89,0.16,2.74,0.47c0.85,0.31,1.61,0.79,2.26,1.44c0.65,0.65,1.16,1.48,1.52,2.48c0.37,1,0.55,2.2,0.55,3.58v12.76
				h-5.12v-11.46c0-1.44-0.35-2.57-1.04-3.39c-0.69-0.83-1.69-1.24-2.99-1.24c-1.52,0-2.65,0.51-3.39,1.52
				c-0.75,1.02-1.12,2.38-1.12,4.09V149.73z"/>
		</g>
		<g>
			<path class="st0" d="M78.82,129.57h5.73v-4.15c0-1.17,0.39-2.15,1.18-2.95c0.79-0.8,1.76-1.2,2.93-1.2h8.21v4.88h-6.1
				c-0.73,0-1.1,0.41-1.1,1.22v2.19h7.93v4.88h-7.93v15.29h-5.12v-15.29h-5.73V129.57z"/>
		</g>
		<g>
			<path class="st0" d="M123.42,139.9c0,1.68-0.28,3.17-0.85,4.45c-0.57,1.29-1.34,2.37-2.32,3.25c-0.98,0.88-2.09,1.55-3.35,2.01
				c-1.26,0.46-2.58,0.69-3.96,0.69c-1.38,0-2.7-0.23-3.96-0.69c-1.26-0.46-2.38-1.13-3.35-2.01c-0.98-0.88-1.75-1.97-2.32-3.25
				c-0.57-1.29-0.85-2.77-0.85-4.45v-0.49c0-1.65,0.29-3.12,0.85-4.41c0.57-1.29,1.34-2.38,2.32-3.27c0.98-0.89,2.09-1.57,3.35-2.03
				c1.26-0.46,2.58-0.69,3.96-0.69c1.38,0,2.7,0.23,3.96,0.69c1.26,0.46,2.38,1.14,3.35,2.03c0.98,0.89,1.75,1.99,2.32,3.27
				c0.57,1.29,0.85,2.76,0.85,4.41V139.9z M112.93,145.42c0.73,0,1.42-0.12,2.07-0.37c0.65-0.24,1.22-0.6,1.71-1.06
				c0.49-0.46,0.87-1.02,1.16-1.69c0.29-0.66,0.43-1.42,0.43-2.26v-0.81c0-0.84-0.14-1.59-0.43-2.26c-0.28-0.66-0.67-1.23-1.16-1.69
				c-0.49-0.46-1.06-0.81-1.71-1.06c-0.65-0.24-1.34-0.37-2.07-0.37c-0.73,0-1.42,0.12-2.07,0.37c-0.65,0.24-1.22,0.6-1.71,1.06
				c-0.49,0.46-0.87,1.02-1.16,1.69c-0.28,0.66-0.43,1.42-0.43,2.26v0.81c0,0.84,0.14,1.59,0.43,2.26c0.29,0.66,0.67,1.23,1.16,1.69
				c0.49,0.46,1.06,0.81,1.71,1.06C111.51,145.3,112.2,145.42,112.93,145.42z"/>
		</g>
		<g>
			<path class="st0" d="M148.02,142.34c-0.46,2.39-1.55,4.31-3.27,5.77c-1.72,1.46-4.02,2.2-6.89,2.2c-1.49,0-2.88-0.23-4.17-0.69
				c-1.29-0.46-2.41-1.12-3.35-1.99c-0.95-0.87-1.69-1.94-2.24-3.21c-0.54-1.27-0.81-2.72-0.81-4.35v-0.49
				c0-1.63,0.27-3.09,0.81-4.39c0.54-1.3,1.29-2.41,2.26-3.33c0.96-0.92,2.09-1.63,3.37-2.11c1.29-0.49,2.66-0.73,4.13-0.73
				c2.82,0,5.1,0.73,6.85,2.2c1.75,1.46,2.85,3.39,3.31,5.77l-5.04,1.3c-0.16-1.19-0.68-2.22-1.54-3.09
				c-0.87-0.87-2.09-1.3-3.66-1.3c-0.73,0-1.42,0.14-2.07,0.41c-0.65,0.27-1.22,0.66-1.71,1.16c-0.49,0.5-0.87,1.11-1.16,1.83
				c-0.29,0.72-0.43,1.52-0.43,2.42v0.24c0,0.89,0.14,1.69,0.43,2.38c0.28,0.69,0.67,1.27,1.16,1.73c0.49,0.46,1.06,0.81,1.71,1.04
				c0.65,0.23,1.34,0.35,2.07,0.35c1.57,0,2.77-0.39,3.6-1.18c0.83-0.79,1.36-1.84,1.61-3.17L148.02,142.34z"/>
		</g>
		<g>
			<path class="st0" d="M166.07,146.81c-0.54,1.27-1.3,2.18-2.28,2.7c-0.98,0.53-2.11,0.79-3.41,0.79c-1.22,0-2.37-0.23-3.44-0.69
				c-1.07-0.46-2.01-1.14-2.83-2.03c-0.81-0.89-1.46-1.98-1.93-3.25c-0.47-1.27-0.71-2.72-0.71-4.35v-0.65
				c0-1.6,0.23-3.03,0.69-4.31c0.46-1.27,1.08-2.36,1.87-3.25c0.79-0.89,1.7-1.58,2.74-2.05c1.04-0.47,2.16-0.71,3.35-0.71
				c1.44,0,2.59,0.24,3.48,0.73c0.88,0.49,1.58,1.25,2.09,2.28h0.73v-2.44h5.12v14.07c0,0.81,0.37,1.22,1.1,1.22h0.77v4.88h-3.5
				c-0.92,0-1.67-0.27-2.26-0.81c-0.58-0.54-0.87-1.25-0.87-2.11H166.07z M161.52,145.42c1.49,0,2.68-0.49,3.58-1.48
				c0.89-0.99,1.34-2.34,1.34-4.05v-0.49c0-1.71-0.45-3.06-1.34-4.05c-0.89-0.99-2.09-1.48-3.58-1.48s-2.68,0.49-3.58,1.48
				c-0.89,0.99-1.34,2.34-1.34,4.05v0.49c0,1.71,0.45,3.06,1.34,4.05C158.83,144.93,160.03,145.42,161.52,145.42z"/>
		</g>
		<g>
			<path class="st0" d="M184.12,135.26c0,0.65,0.34,1.12,1.02,1.4s1.91,0.52,3.7,0.71c2.06,0.22,3.74,0.83,5.04,1.85
				c1.3,1.02,1.95,2.43,1.95,4.25v0.24c0,2.01-0.73,3.61-2.19,4.8c-1.46,1.19-3.52,1.79-6.18,1.79c-1.57,0-2.91-0.2-4.02-0.61
				c-1.11-0.41-2.03-0.91-2.76-1.52c-0.73-0.61-1.29-1.29-1.69-2.03c-0.39-0.75-0.66-1.47-0.79-2.18l4.72-1.54
				c0.22,0.87,0.67,1.63,1.36,2.28c0.69,0.65,1.75,0.98,3.19,0.98c1.27,0,2.15-0.2,2.62-0.59c0.47-0.39,0.71-0.82,0.71-1.28
				c0-0.27-0.06-0.52-0.18-0.75c-0.12-0.23-0.35-0.45-0.67-0.65c-0.33-0.2-0.77-0.37-1.32-0.51c-0.56-0.14-1.25-0.24-2.09-0.33
				c-2.28-0.19-4.09-0.78-5.43-1.77c-1.34-0.99-2.01-2.45-2.01-4.37v-0.24c0-1,0.22-1.88,0.65-2.64c0.43-0.76,1-1.4,1.71-1.93
				c0.7-0.53,1.52-0.93,2.44-1.2c0.92-0.27,1.87-0.41,2.85-0.41c1.27,0,2.38,0.16,3.31,0.47c0.93,0.31,1.73,0.72,2.38,1.22
				c0.65,0.5,1.18,1.06,1.59,1.67c0.41,0.61,0.72,1.2,0.94,1.77l-4.63,1.87c-0.24-0.73-0.66-1.31-1.26-1.73
				c-0.6-0.42-1.37-0.63-2.32-0.63c-0.87,0-1.52,0.16-1.95,0.47C184.34,134.41,184.12,134.8,184.12,135.26z"/>
		</g>
		<g>
			<path class="st0" d="M201.8,129.57h5.98v-8.29h5.12v8.29h7.28v4.88h-7.28v9.19c0,0.81,0.37,1.22,1.1,1.22h5.45v4.88h-8.54
				c-0.92,0-1.67-0.3-2.26-0.89c-0.58-0.6-0.87-1.35-0.87-2.28v-12.11h-5.98V129.57z"/>
		</g>
	</g>
	<path class="st1" d="M220.18,40.7c-0.26-0.54-0.69-0.97-1.23-1.23c-0.5-0.24-12.46-5.82-30.06-5.82c-17.57,0-29.55,5.59-30.06,5.82
		c-0.54,0.26-0.97,0.69-1.23,1.23c-0.24,0.5-5.83,12.52-5.83,30.06s5.59,29.56,5.83,30.07c0.25,0.54,0.69,0.97,1.23,1.22
		c0.08,0.04,2.06,0.97,5.58,2.09l0.37,0.12l4.16-4.16l-2.96-0.88c-1.89-0.6-3.29-1.15-4.07-1.47c-1.29-3.14-4.96-13.28-4.96-26.99
		c0-13.71,3.67-23.85,4.96-26.99c3.12-1.29,13.23-4.95,26.98-4.95c13.71,0,23.85,3.67,26.99,4.96c1.29,3.12,4.95,13.23,4.95,26.99
		c0,13.71-3.67,23.85-4.95,26.99c-3.14,1.29-13.28,4.95-26.99,4.95c-3.72,0-7.48-0.27-11.17-0.81c-0.8-0.12-1.63,0.16-2.2,0.73
		l-8.59,8.59l3.66,3.66l7.68-7.68c3.52,0.45,7.09,0.69,10.62,0.69c17.58,0,29.56-5.58,30.06-5.82c0.54-0.25,0.97-0.69,1.23-1.23
		c0.24-0.5,5.82-12.46,5.82-30.06C226,53.15,220.41,41.2,220.18,40.7z"/>
</g>
</svg>
